# xmcd
#
# Track frame offsets:
# 150
# 14859
# 33093
# 46266
# 58507
# 72376
# 85152
# 98760
# 111872
# 127202
#
# Disc length: 1919 seconds
#
#
# Revision: 0
# Processed by: cddbd v1.5PL3 Copyright (c) Steve Scherf et al.
# Submitted via: FreeRIP 2.53 
#
DISCID=87077d0a
DTITLE=England, Ty - Two Ways To Fall
DYEAR=1900
DGENRE=Country
TTITLE0=It Starts With L
TTITLE1=Two Ways To Fall
TTITLE2=I'd Take Today
TTITLE3=Never Say Never
TTITLE4=The Last Dance
TTITLE5=Kick Back
TTITLE6=Irresistable You
TTITLE7=Backslider's Prayer
TTITLE8=All Of The Above
TTITLE9=Sure
EXTD=
EXTT0=
EXTT1=
EXTT2=
EXTT3=
EXTT4=
EXTT5=
EXTT6=
EXTT7=
EXTT8=
EXTT9=
PLAYORDER=
